<?xml version="1.0" encoding="UTF-8" standalone="no"?>
<svg
   xmlns:dc="http://purl.org/dc/elements/1.1/"
   xmlns:cc="http://creativecommons.org/ns#"
   xmlns:rdf="http://www.w3.org/1999/02/22-rdf-syntax-ns#"
   xmlns:svg="http://www.w3.org/2000/svg"
   xmlns="http://www.w3.org/2000/svg"
   xmlns:xlink="http://www.w3.org/1999/xlink"
   xmlns:sodipodi="http://sodipodi.sourceforge.net/DTD/sodipodi-0.dtd"
   xmlns:inkscape="http://www.inkscape.org/namespaces/inkscape"
   inkscape:output_extension="org.inkscape.output.svg.inkscape"
   sodipodi:docname="mo eg logo.svg"
   inkscape:version="1.0 (4035a4fb49, 2020-05-01)"
   sodipodi:version="0.32"
   id="svg2"
   viewBox="-25468 -22465 174384.3 174307.39"
   height="1770"
   width="1770"
   version="1.0">
  <metadata
     id="metadata131">
    <rdf:RDF>
      <cc:Work
         rdf:about="">
        <dc:format>image/svg+xml</dc:format>
        <dc:type
           rdf:resource="http://purl.org/dc/dcmitype/StillImage" />
        <dc:title></dc:title>
      </cc:Work>
    </rdf:RDF>
  </metadata>
  <defs
     id="defs129">
    <inkscape:perspective
       id="perspective625"
       inkscape:persp3d-origin="294.93861 : 87326.66 : 1"
       inkscape:vp_z="589.87721 : 87413.142 : 1"
       inkscape:vp_y="0 : 1000 : 0"
       inkscape:vp_x="0 : 87413.142 : 1"
       sodipodi:type="inkscape:persp3d" />
    <marker
       orient="auto"
       markerHeight="3"
       markerWidth="4"
       markerUnits="strokeWidth"
       refY="5"
       refX="0"
       viewBox="0 0 10 10"
       id="marker3224">
      <path
         inkscape:connector-curvature="0"
         id="path4"
         d="M 0,0 10,5 0,10 Z" />
    </marker>
    <marker
       orient="auto"
       markerHeight="3"
       markerWidth="4"
       markerUnits="strokeWidth"
       refY="5"
       refX="10"
       viewBox="0 0 10 10"
       id="marker3227">
      <path
         inkscape:connector-curvature="0"
         id="path6"
         d="M 10,0 0,5 10,10 Z" />
    </marker>
    <marker
       id="ArrowStart"
       viewBox="0 0 10 10"
       refX="10"
       refY="5"
       markerUnits="strokeWidth"
       markerWidth="4"
       markerHeight="3"
       orient="auto">
      <path
         inkscape:connector-curvature="0"
         d="M 10,0 0,5 10,10 Z"
         id="path10" />
    </marker>
    <marker
       id="ArrowEnd"
       viewBox="0 0 10 10"
       refX="0"
       refY="5"
       markerUnits="strokeWidth"
       markerWidth="4"
       markerHeight="3"
       orient="auto">
      <path
         inkscape:connector-curvature="0"
         d="M 0,0 10,5 0,10 Z"
         id="path7" />
    </marker>
    <clipPath
       id="clipPath6523"
       clipPathUnits="userSpaceOnUse">
      <use
         height="51100"
         width="58116"
         y="0"
         x="0"
         style="fill:#ffffff;stroke:#000000;stroke-width:187.379;stroke-linejoin:round;stroke-miterlimit:4;stroke-dasharray:none"
         id="use6525"
         xlink:href="#state_outline"
         transform="matrix(0.00964706,0,0,0.00964706,398.65712,216.99185)" />
    </clipPath>
  </defs>
  <sodipodi:namedview
     inkscape:document-rotation="0"
     inkscape:window-maximized="1"
     showgrid="false"
     inkscape:current-layer="layer1"
     inkscape:window-y="-8"
     inkscape:window-x="-8"
     inkscape:cy="844.20075"
     inkscape:cx="932.69456"
     inkscape:zoom="0.70710678"
     height="5110px"
     width="770px"
     id="base"
     pagecolor="#ffffff"
     bordercolor="#666666"
     borderopacity="1.0"
     objecttolerance="10.0"
     gridtolerance="10.0"
     guidetolerance="10.0"
     inkscape:pageopacity="0.0"
     inkscape:pageshadow="2"
     inkscape:window-width="1280"
     inkscape:window-height="1004" />
  <clipPath
     id="state_clip_path">
    <g
       id="state_outline">
      <path
         inkscape:connector-curvature="0"
         d="m 11434,-19825 -57,47 -58,52 -45,37 -40,47 -34,36 -32,55 -21,38 -35,53 -33,70 -23,66 -15,61 -10,45 -16,81 -15,45 -25,56 -20,38 -16,32 -17,40 -14,56 -18,71 -20,55 -2,5 -15,47 -15,49 3,42 12,28 11,36 v 30 l -5,30 -21,40 -20,51 -10,15 -29,39 -25,32 -15,45 2,36 1,50 v 50 l -5,45 -5,46 -5,55 v 65 l 6,36 v 30 l 2,31 -2,29 -10,36 -15,35 -5,50 -17,48 -4,43 7,53 14,58 11,45 1,52 -6,49 -10,52 -5,38 5,61 v 45 l 1,66 15,85 19,122 33,104 15,101 22,116 33,119 26,70 14,47 5,56 v 45 l -5,48 -3,55 -7,38 v 45 l 6,38 10,23 18,32 54,83 72,100 31,76 26,75 26,95 31,71 46,59 39,69 27,65 37,74 62,80 12,12 86,98 36,61 22,49 12,50 1,40 -3,35 -25,46 -24,36 -28,31 -26,35 -36,40 -3,4 -37,47 -31,65 -10,56 -5,55 -5,71 11,50 10,50 31,81 35,74 32,72 42,60 36,30 47,27 71,34 77,54 49,33 58,38 63,59 82,91 42,45 30,55 19,44 12,50 2,55 -7,47 -15,50 -5,41 -2,35 1,45 1,35 -1,15 -3,26 -13,35 -14,41 -9,51 5,44 6,45 14,49 12,47 38,39 48,64 52,48 47,50 50,37 32,28 58,50 73,53 70,52 31,30 10,10 22,34 29,31 38,26 49,25 63,43 81,57 36,45 34,46 36,52 32,34 37,44 26,40 28,44 29,41 31,42 46,48 46,40 48,32 55,40 47,23 42,19 47,18 54,23 57,30 36,25 35,24 16,13 12,9 19,35 21,40 15,49 7,50 7,40 2,52 6,24 10,26 20,71 43,76 40,49 51,50 57,27 87,12 5,1 129,10 71,-1 62,30 51,40 46,49 17,39 51,128 51,91 52,73 41,57 35,51 17,40 10,50 6,55 9,40 17,45 22,39 27,40 53,52 57,65 66,68 104,83 77,65 55,26 48,39 53,32 39,18 44,14 37,9 26,14 37,18 46,20 36,20 32,13 61,22 46,9 39,24 28,21 15,31 11,27 5,13 20,35 24,26 32,34 47,43 82,62 57,40 53,26 66,50 53,43 49,36 62,41 41,19 42,14 4,1 37,12 40,23 25,22 52,43 36,32 32,25 48,48 42,39 38,39 53,53 50,40 34,18 31,19 32,23 57,40 12,14 32,34 54,73 72,80 51,63 25,34 18,24 55,69 52,59 31,21 16,12 35,24 56,35 36,30 26,20 21,40 31,55 15,50 6,41 18,64 10,56 3,15 6,24 7,51 17,44 12,45 10,48 -5,55 v 53 l 2,55 12,45 22,50 17,45 14,51 11,54 -5,69 5,66 6,70 15,61 16,65 17,44 38,64 33,48 31,45 31,55 25,55 28,49 9,42 3,28 2,50 -15,48 -17,49 -24,41 -30,42 -26,34 -33,33 -14,26 -15,36 -24,46 -28,61 -19,45 -15,30 -5,41 16,35 29,35 22,30 22,34 16,35 40,89 20,48 5,50 1,41 5,35 22,41 35,34 29,29 16,25 32,36 29,67 12,55 v 59 l 1,71 -4,82 9,49 v 40 l 36,65 26,66 21,59 17,49 14,52 11,46 27,47 19,33 29,25 17,25 36,29 32,29 34,28 19,26 23,23 16,41 15,30 39,53 39,37 61,35 62,40 90,56 69,29 51,17 57,23 46,10 57,-11 60,-15 52,-20 57,-41 37,-29 40,-42 45,-50 41,-51 52,-55 39,-47 52,-29 36,-25 22,-30 49,-62 26,-55 51,-75 39,-76 14,-51 3,-40 9,-51 11,-55 17,-31 2,-5 27,-49 31,-51 38,-30 45,-26 45,-15 46,-11 15,-4 25,3 21,2 47,3 41,8 51,8 72,5 94,5 70,15 67,19 77,20 71,36 83,39 69,47 111,58 72,46 61,39 55,33 74,22 62,22 61,9 51,-2 41,-1 h 5 l 62,2 46,4 h 5 l 67,4 72,11 47,13 57,29 45,17 51,30 108,56 64,48 63,53 53,43 46,40 41,40 61,32 42,18 41,20 52,22 46,23 51,30 60,32 105,68 89,56 91,54 46,22 36,28 21,40 20,50 11,50 -4,51 -6,55 -15,76 -21,70 -10,56 -20,50 -3,7 -21,40 -4,7 -39,47 -89,88 -74,44 -57,41 -40,24 -31,31 -28,30 -22,26 -8,10 -3,5 -21,31 -30,44 -16,40 -15,41 -15,35 -31,40 -29,31 -25,21 -34,32 -25,21 -35,32 -26,30 -20,31 -26,50 -20,60 -5,66 5,60 6,51 31,65 26,40 31,40 32,34 43,49 33,53 38,75 29,80 17,64 3,15 11,72 18,89 -2,90 v 63 l -10,65 -14,49 -19,66 -28,62 -35,90 -51,84 -55,62 -109,97 -65,56 -37,45 -31,48 -29,39 -49,79 -39,72 -26,49 -25,61 -49,96 -1,5 -23,65 -19,56 -3,11 -12,49 -29,108 -28,82 -13,66 -14,55 -12,81 -8,81 -8,71 -14,136 -25,101 -26,75 -39,84 -33,77 -54,67 -42,40 -43,34 -39,47 -61,85 -62,60 -44,52 -37,50 -27,48 -34,61 -23,62 -24,56 1,55 -10,55 -15,61 -16,50 -25,56 -20,55 -21,61 -12,49 -8,56 2,50 -3,70 2,51 2,65 v 146 l 4,111 29,99 19,75 18,80 18,70 20,69 20,75 36,100 38,74 24,62 42,67 36,54 36,45 35,43 38,49 64,63 33,25 45,18 37,19 56,18 52,20 58,27 58,38 43,40 43,52 32,50 33,63 36,66 68,118 52,85 10,17 4,5 83,111 83,91 61,49 82,60 81,60 7,5 111,75 89,45 67,30 82,35 62,20 116,22 63,18 57,24 47,23 37,49 24,49 15,55 16,45 30,59 43,69 64,53 94,60 105,49 83,22 95,33 61,22 47,39 36,34 44,49 27,24 47,43 36,40 29,49 43,49 69,68 52,35 54,44 37,22 109,11 246,-67 125,-52 49,127 90,-10 1,67 -73,84 -114,75 -119,-1 -18,76 -106,74 13,109 111,188 16,30 46,76 52,85 55,52 54,34 81,19 92,20 69,2 86,-18 51,-22 66,-44 46,-45 41,-51 41,-50 40,-51 49,-35 33,-31 41,-35 26,-14 31,-7 h 36 l 41,25 37,28 110,76 68,43 32,29 35,34 21,26 3,4 38,56 22,32 30,33 25,25 26,15 39,4 33,1 h 60 l 58,19 67,32 46,28 36,15 38,24 48,38 48,48 46,71 61,77 88,83 71,53 84,47 57,28 86,42 19,13 17,12 47,48 43,59 38,59 17,45 v 50 l -5,50 -21,61 -25,60 -17,48 -9,41 17,39 25,28 41,25 41,22 4,1 37,7 40,1 73,12 66,9 62,12 52,25 37,23 35,27 25,40 32,45 16,45 12,25 31,29 34,26 4,2 41,24 73,28 88,17 88,22 111,22 86,22 73,21 4,2 63,32 41,32 44,46 17,35 6,39 2,41 -10,30 -3,36 -9,90 5,56 v 40 l 5,65 1,41 -5,30 v 25 l 5,30 20,30 18,19 16,20 11,20 33,47 53,60 75,65 57,70 41,60 26,51 17,49 1,45 -9,36 -29,36 -31,15 -36,5 -46,5 -56,1 -77,-12 -41,6 -5,2 -25,14 -16,20 -11,36 -6,41 -2,70 v 6 l -1,79 21,56 20,105 47,116 52,92 30,58 42,80 25,71 25,69 23,64 45,78 49,57 39,68 35,58 53,49 54,58 84,63 48,49 40,49 30,54 52,107 26,90 36,111 26,105 27,85 7,50 7,70 -4,62 -7,64 -8,71 -13,61 -22,96 -21,45 -41,36 -41,25 -72,21 -82,15 -82,16 -61,10 -36,20 h -9 l -27,15 -33,32 -44,44 -30,39 -30,31 -29,42 -49,60 -10,50 -13,58 -13,71 -14,63 -17,64 2,50 7,51 22,49 33,52 25,41 52,65 46,43 36,14 52,8 46,-1 41,-10 51,-4 15,-1 56,-6 6,3 26,16 15,27 8,47 -3,51 -15,43 -15,45 -15,40 -16,50 -4,36 2,40 23,75 34,99 29,85 18,70 38,63 31,66 50,68 44,69 40,78 26,66 41,75 36,55 41,60 50,45 38,36 46,32 36,18 26,20 30,35 30,34 38,44 25,37 41,55 34,47 13,33 12,40 3,46 v 49 l -3,41 -7,41 -25,61 -24,61 -13,66 -9,54 17,51 40,39 34,24 58,43 62,38 87,50 88,30 56,33 67,32 82,40 62,40 41,35 37,34 37,44 39,37 30,31 38,39 25,10 31,4 45,1 37,-14 30,-31 39,-47 43,-49 21,-34 9,-32 9,-44 -4,-47 -10,-55 -21,-40 -38,-42 -39,-38 -36,-25 -25,-15 -37,-8 -57,-28 -35,-19 -56,-25 -41,-30 -31,-25 -33,-38 -19,-32 -5,-61 5,-40 25,-21 498,-7 32,39 40,97 44,112 54,59 57,37 63,33 34,15 45,28 22,12 40,37 18,23 3,6 18,39 10,30 1,5 13,60 13,80 3,87 13,74 23,61 41,40 42,20 37,5 70,-5 63,-20 45,-26 60,-33 94,-43 71,-31 68,-1 80,30 76,54 62,116 10,20 13,100 -5,68 v 39 l -2,5 -34,92 -25,65 -28,78 -30,72 -34,133 -20,95 -5,81 -12,196 -18,71 -18,73 -66,81 -5,4 -62,46 -69,28 -62,8 -92,12 -57,60 -9,62 6,236 78,145 47,37 52,42 182,18 46,4 52,15 30,30 8,11 16,26 33,54 16,132 -10,63 -53,61 -71,11 -51,-15 -62,-19 -86,-26 -8,-1 -54,1 -92,1 -52,25 -95,82 -19,37 -27,54 -26,51 -5,69 -5,63 19,93 52,85 74,84 100,113 38,88 7,57 7,53 45,57 2,40 -17,23 -43,55 -43,57 -8,10 -33,41 -52,66 -69,86 -10,12 -15,55 -30,108 -3,12 -3,66 -5,105 -6,142 -1,21 -37,61 -36,61 -92,87 -19,17 -61,17 -71,19 -54,14 -78,-4 -62,-31 -87,-43 -175,-199 -76,-109 -65,-93 -48,-69 -54,-78 -50,-48 -53,-32 -20,-10 -46,-15 -67,-4 -98,10 -49,29 -62,37 -69,94 -6,8 -21,114 -6,35 -19,101 -23,124 -40,119 -38,115 -30,91 -25,74 -33,147 -47,213 -4,20 -42,190 -34,85 -51,70 -57,79 -65,90 -180,145 -43,5 -49,6 -54,-23 -36,-16 -14,-16 -76,-89 v -85 l -1,-66 19,-65 34,-119 77,-201 34,-92 22,-55 4,-42 7,-73 -62,-205 -53,-77 -44,-64 -55,-34 -64,-20 -71,-6 -83,-6 -51,-4 -62,-5 -59,-5 -52,13 -63,19 -4,3 -124,80 -69,106 -18,96 -3,18 9,67 26,65 28,69 49,122 89,113 69,85 35,45 57,61 60,66 41,45 38,87 5,11 2,50 -16,44 -22,59 -41,64 -86,64 -8,7 -73,54 -3,6 -19,39 8,35 42,118 3,10 85,121 64,90 56,106 52,98 31,155 -9,157 -71,161 -85,71 -140,21 -83,-15 -56,-11 -116,-21 -79,-2 -138,-4 -89,43 -29,33 -17,106 32,110 141,160 252,126 145,73 116,58 40,44 6,96 -2,7 -19,83 -60,70 -89,18 -65,13 -74,15 -85,42 -88,24 -114,31 -190,-2 -91,-23 -21,-6 -215,-56 -71,-18 -14,1 -125,12 -52,15 -41,46 -24,86 28,63 9,20 57,48 70,58 130,108 117,81 50,35 49,35 41,51 40,51 19,29 24,29 52,65 59,38 119,78 86,57 97,129 11,63 -17,64 -16,61 -124,140 -64,29 -375,164 -49,29 -33,38 -26,29 -36,40 -51,150 -6,251 -1,65 -2,64 -16,56 -23,42 -31,34 -34,38 -50,56 -71,77 -80,168 -114,3 -1029,26 -1036,62 -379,22 -708,25 -420,14 -1185,37 -281,12 -386,16 -414,27 14,-36 26,-55 46,-71 56,-66 35,-45 15,-46 10,-40 6,-25 14,-31 21,-25 20,-25 10,-21 10,-35 20,-25 21,-31 20,-30 2,-19 5,-45 -2,-27 4,-40 13,-34 28,-32 41,-25 35,-21 21,-30 8,-44 -9,-72 9,-48 15,-31 21,-25 25,-20 36,-20 26,-13 20,-21 10,-30 10,-40 21,-43 31,-40 35,-24 31,-7 46,-10 57,-5 41,-25 25,-26 41,-35 35,-20 61,-36 76,-61 49,-45 25,-40 21,-51 1,-51 -5,-50 -7,-45 6,-46 20,-56 25,-60 31,-56 20,-25 41,-11 46,-25 36,-26 25,-38 30,-48 27,-43 50,-48 7,-6 45,-42 61,-40 57,-31 46,-20 56,-10 46,-10 41,-26 29,-35 25,-40 36,-21 51,-15 36,-16 33,-20 18,-21 5,-30 -11,-25 -20,-25 -11,-20 10,-25 14,-25 22,-16 20,-15 10,-20 10,-36 5,-35 5,-40 15,-26 31,-30 30,-9 31,-15 51,-20 41,-8 31,-20 31,-16 25,-5 16,-7 30,-34 11,-22 14,-38 5,-46 1,-22 4,-28 27,-32 51,-51 8,-33 2,-47 -11,-51 -38,-43 -34,-32 -28,-18 -21,-25 -7,-32 15,-40 17,-29 15,-35 -5,-30 -12,-22 v -30 l 16,-21 10,-25 -11,-25 -10,-20 v -28 l 26,-28 25,-20 21,-25 9,-49 11,-67 5,-40 -10,-56 -2,-43 v -41 l -9,-26 -15,-30 -18,-29 -16,-20 -28,-7 -18,-18 -16,-25 -31,-29 -41,-15 -41,-5 -72,-4 -82,-5 -38,-8 -24,-26 -25,-25 -21,-10 -31,10 -15,-5 -16,-5 -20,-19 -12,-15 -11,-15 -20,5 -14,5 -10,-5 v -25 l 5,-25 -7,-30 -20,-10 -16,5 -31,-5 -5,-25 5,-31 21,-30 21,-5 10,-20 v -15 l 10,-16 10,-25 5,-30 -5,-30 -16,-30 -5,-25 4,-36 -14,-35 -21,-35 -10,-45 -11,-30 -10,-36 -16,-45 -25,-35 -43,-19 -29,-6 -26,-25 -5,-30 10,-25 5,-36 5,-30 10,-20 11,-15 7,-25 -592,16 -1754,43 -1447,37 -964,22 -859,17 -1534,29 -1572,24 -353,5 -477,7 -1711,26 -333,4 -380,5 -1634,15 -766,5 -2447,41 -823,7 -284,2 -809,6 -99,3 -60,-1 -38,1 -246,1 -2098,9 h -308 l -461,-1 -49,-1 -162,-2 h -28 l -672,1 H 299 l -19,1 h -33 l -112,1 -203,-2 -131,2 h -59 l -346,1 -116,1 h -217 l -49,1 -118,-2 -149,-2 h -137 l -99,-5 -38,-1 -152,1 -100,1 h -80 l -70,1 h -81 l -84,-1 h -95 l -93,-1 h -498 l -161,-1 -1708,-6 -115,-4 -29,-1 -123,1 -448,-1 h -34 l -1928,-22 -406,-6 -1275,-15 -130,-1 -747,-12 -251,-4 -85,-1 -1513,-29 -798,-17 -1939,-32 -484,-9 -1636,-16 19,-1132 13,-766 v -10 l 13,-1066 57,-2592 15,-649 72,-3106 6,-286 5,-203 64,-2819 4,-193 6,-219 92,-4027 6,-257 11,-604 74,-3054 26,-867 3,-94 77,-2905 37,-1072 5,-135 48,-2148 1,-43 10,-788 1,-63 29,-49 19,-29 15,-24 33,-43 30,-59 4,-25 10,-45 -2,-40 -9,-26 -15,-40 -21,-35 -30,-20 -21,-4 h -20 l -51,-1 -47,7 -41,13 -42,7 -35,14 -65,15 -56,-3 -43,-12 -31,-20 -36,-25 -23,-32 -14,-31 2,-25 11,-25 8,-34 -4,-31 -13,-26 -54,-33 -41,-20 h -30 l -36,-2 -73,6 -37,18 -45,34 -30,27 -52,33 -64,10 -78,5 -73,-4 -62,-10 -68,-18 -55,-32 -44,-35 -43,-46 -38,-44 -34,-51 -21,-56 -29,-44 -18,-37 -25,-29 -18,-24 -33,-6 -52,-10 -46,5 h -61 l -62,-15 -71,-34 -47,-41 -50,-50 -7,-46 30,-74 33,-38 20,-65 4,-90 -35,-78 -37,-58 -46,-65 -72,-60 -113,-55 -93,-66 -108,-97 -74,-131 -49,-114 -26,-125 -7,-74 -4,-37 -5,-66 v -60 l 11,-53 13,-40 18,-39 14,-19 35,-29 42,-32 33,-24 33,-28 21,-33 15,-50 -8,-41 -23,-50 -27,-44 -35,-32 -41,-10 -31,6 -51,11 -51,24 -39,16 -53,19 h -57 l -28,-19 -8,-6 -32,-20 -40,-35 -20,-50 -5,-36 5,-40 1,-44 -27,-41 -40,-44 -37,-17 -38,-18 -45,-17 -25,-25 -28,-24 -24,-42 -25,-55 -11,-50 -10,-35 -14,-40 -22,-25 -31,-29 -61,-23 -70,-30 -155,-70 -83,-39 -45,-39 -29,-42 -24,-60 -16,-65 -5,-41 v -65 l -13,-60 -18,-51 -28,-48 -44,-42 -62,-51 -66,-45 -77,-65 -73,-69 -52,-61 -29,-34 -47,-103 -36,-115 -5,-61 5,-65 14,-39 19,-49 33,-43 38,-28 29,-8 46,-5 41,5 42,22 35,13 56,10 47,-14 61,-16 39,-24 32,-31 31,-41 21,-45 13,-33 7,-38 -10,-40 -10,-39 -18,-46 -12,-51 -22,-60 1,-22 2,-26 17,-58 33,-85 64,-106 51,-91 50,-65 66,-72 81,-60 79,-25 57,-15 52,1 40,-11 43,-15 44,-20 36,-36 18,-28 19,-60 4,-60 -1,-73 v -101 l 4,-123 10,-70 14,-60 23,-34 32,-28 29,-12 52,-15 36,15 41,26 77,59 97,80 92,44 76,20 79,7 44,-10 58,-26 51,-45 51,-56 31,-53 19,-54 4,-56 -3,-53 -10,-66 -13,-44 -34,-41 -45,-19 -40,-2 -38,23 -30,28 -51,37 -52,19 -73,9 -81,-9 -50,-39 -29,-22 -18,-14 -26,-46 -10,-30 -5,-40 5,-40 15,-29 27,-24 27,-18 52,-7 36,2 h 48 l 50,-9 47,-11 52,-19 30,-7 20,-15 36,-28 23,-44 13,-44 15,-45 1,-50 -5,-56 -1,-15 -10,-35 -21,-40 -24,-30 -29,-32 -24,-16 -51,-8 -77,-5 -45,-13 -41,-12 -30,-17 -44,-23 -35,-35 -38,-40 -18,-42 -16,-39 -14,-48 13,-40 17,-34 24,-44 27,-29 18,-39 12,-29 3,-46 -9,-33 -27,-55 -29,-37 -67,-44 -57,-24 -61,-8 -51,-9 -57,7 -46,14 -52,5 -57,2 -50,-7 -21,-2 -56,-19 -61,1 -64,27 -44,59 -29,37 -1,39 -6,45 -10,50 -10,36 -41,45 -65,39 -58,22 -97,10 h -144 l -88,-10 -41,-7 -55,-13 -50,-29 -43,-16 -52,-25 -35,-21 -30,-13 -42,-17 -33,-18 -38,-38 -21,-34 -16,-45 -5,-46 v -40 l -5,-30 -4,-55 -22,-31 -46,-25 -46,5 -43,11 -44,24 -47,26 -66,25 -58,-2 -60,-18 -45,-34 -37,-26 -26,-36 2,-28 12,-34 18,-39 19,-24 5,-36 5,-40 -5,-30 -8,-36 -18,-45 -20,-45 -31,-20 -57,-15 -46,5 h -61 l -57,-9 -41,-16 -51,-30 -51,-46 -29,-44 -33,-46 -41,-71 -54,-47 -49,-38 -67,-35 -72,-35 -49,-43 -48,-53 -26,-65 13,-68 -13,-79 -41,-62 -179,-80 -107,-115 -122,-27 -71,21 -85,28 -71,-3 -50,-13 -63,-29 -68,-64 -35,-60 -23,-72 -10,-56 -9,-74 17,-51 17,-36 35,-31 30,-35 18,-36 8,-41 -8,-37 -10,-53 1,-42 13,-39 24,-36 22,-20 48,-38 33,-27 14,-37 6,-38 -2,-48 -8,-42 -19,-35 -22,-28 -44,-25 -43,-9 -39,-1 -63,-12 -59,-48 -38,-73 -8,-177 -72,-73 -149,-68 -152,-184 -25,-80 1,-93 104,-182 15,-114 -11,-74 -48,-93 -108,-72 -277,-11 -177,-101 -75,-43 -21,-25 -7,-33 2,-44 50,-168 -17,-56 -73,-72 -168,-30 -138,-119 -97,-50 -64,3 -237,81 -54,-13 -47,-45 -2,-56 37,-75 204,-86 42,-36 25,-72 -34,-134 -113,-153 -17,-229 -122,-248 -18,-80 42,-100 11,-37 6,-49 -2,-43 -18,-55 -19,-50 -32,-52 -57,-74 -57,-41 -122,-101 -22,-56 9,-86 12,-94 2,-56 -16,-52 -25,-56 325,-124 52,-69 34,-159 -27,-95 -52,-39 -77,-144 -130,18 -62,38 -37,316 -99,73 -11,-24 -34,-40 -69,-12 -41,14 -91,12 -97,-6 -94,-29 -53,-40 -19,-57 53,-130 4,-59 -88,-219 9,-56 74,-79 1626,77 1687,74 584,25 861,39 1394,62 1024,46 1267,54 1138,37 1156,36 200,3 2022,32 46,1 1781,-5 502,-2 1530,-11 777,-6 1102,3 1184,1 h 288 l 788,-1 1221,-24 404,-7 1891,-38 1349,-28 640,-14 303,-6 2101,-62 190,-5 1302,-45 1000,-36 998,-44 366,-17 925,-55 404,-24 122,-7 23,55 61,80 7,7 76,58 92,60 31,24 36,31 25,45 10,31 v 25 l 4,40 -8,36 -13,40 v 35 l 15,40 31,41 45,25 87,24 128,30 134,34 61,16 36,15 31,20 26,30 5,35 v 111 l -13,41 -2,45 11,35 15,40 21,35 31,35 41,26 46,25 40,22 37,23 29,38 26,51 48,117 27,60 46,50 51,40 72,27 82,13 87,-7 h 51 l 31,-5 30,21 16,30 4,25 -10,35 -21,25 -20,20 -21,20 -16,30 10,36 16,20 28,16 28,5 20,5 16,25 -11,40 -21,45 -16,36 -10,31 v 29 l 20,25 41,26 61,30 73,40 36,20 46,25 29,27 12,38 -2,38 13,28 21,20 22,8 30,5 31,-5 26,-10 h 25 l 21,1 19,15 11,25 v 30 l 5,25 21,21 25,5 34,-7 28,-18 25,-26 10,-30 17,-24 20,-10 31,5 41,11 75,22 z"
         id="Missouri" />
    </g>
  </clipPath>
  <g
     inkscape:label="mo"
     id="layer2"
     inkscape:groupmode="layer">
    <g
       transform="matrix(2.6015122,0,0,2.6015122,15970.22,87966.913)"
       id="g7315">
      <use
         height="51100"
         width="58116"
         y="0"
         x="0"
         style="fill:#ffffff;stroke:#000000;stroke-width:397.439;stroke-linecap:butt;stroke-linejoin:round;stroke-miterlimit:4;stroke-dasharray:none;paint-order:normal"
         id="use9"
         xlink:href="#state_outline"
         transform="matrix(0.7623031,0,0,0.7623031,14850.768,-11299.661)" />
    </g>
  </g>
  <g
     inkscape:label="evergreen"
     id="layer1"
     inkscape:groupmode="layer">
    <g
       transform="matrix(1.2460943,0,0,1.2460943,8725.2803,62364.157)"
       id="g2113">
      <path
         id="path1942"
         d="m 10765.2,413.22659 c -17.076,36.808 -372.282,732.88701 -1065.7472,2088.46101 -693.859,1355.704 -1356.309,2662.411 -1987.981,3920.3161 h -665.025 C 6351.0118,5010.1546 5685.8558,3675.8746 5050.9788,2419.5856 4416.1018,1163.4276 4083.4638,504.69459 4053.3168,443.49259 l 785.747,-355.218 c 23.475,61.071 326.214,697.485 908.756,1909.00601 582.161,1211.507 1143.659,2351.961 1683.994,3421.334 h 10.259 c 548.414,-1095.028 1117.609,-2248.053 1707.889,-3459.049 C 9740.0438,748.68859 10045.2,124.84559 10065.299,88.27459 l 699.901,324.952"
         style="fill:#008460;fill-rule:nonzero;stroke:none;stroke-width:131.363" />
      <path
         id="path1944"
         d="m 28650.79,5950.7396 -659.442,471.2641 c -73.958,-69.7537 -335.764,-333.2277 -785.551,-790.1871 -449.655,-456.946 -1142.989,-1170.208 -2079.475,-2139.009 l 4.995,-41.051 c 127.554,-30.266 297.406,-96.46 508.901,-198.318 211.757,-101.478 390.016,-211.547 534.647,-330.207 124.138,-103.147 232.381,-230.661 324.992,-382.542 92.217,-151.895 138.588,-355.482 138.588,-610.641 0,-233.721 -68.046,-435.008 -203.613,-603.573 -135.829,-168.815 -322.628,-292.48 -560.657,-371.37601 -194.68,-66.588 -398.949,-106.996 -613.464,-120.723 -214.517,-13.596 -412.349,-20.519 -593.367,-20.519 -120.591,0 -212.808,0 -276.519,0 -63.843,0 -110.607,0 -140.821,0 -6.828,579.07401 -11.166,1089.51101 -12.742,1531.58701 -1.576,441.8 -2.365,754.049 -2.365,936.985 0,417.432 1.843,984.447 5.646,1700.533 3.813,716.085 6.827,1165.5829 9.458,1348.5327 h -831.396 c 4.069,-182.9498 10.115,-537.2617 18.128,-1062.9757 8.009,-525.702 12.085,-1180.467 12.085,-1964.034 0,-152.263 0,-434.364 0,-845.767 0,-411.415 -10.115,-1161.235 -30.213,-2249.59001 33.497,0 201.379,-2.312 503.777,-7.448 302.397,-5.005 581.149,-7.698 836.651,-7.698 292.15,0 576.157,15.396 851.493,45.675 275.469,30.529 543.975,95.961 806.175,196.269 332.48,127.777 596.125,315.587 791.067,563.561 194.812,247.97301 292.414,539.29701 292.414,873.61601 0,432.315 -147.257,792.026 -440.985,1079.501 -294.121,287.488 -572.085,500.952 -834.286,640.787 v 22.963 c 465.288,485.294 975.896,985.852 1531.429,1501.82 555.534,515.705 853.596,793.301 894.451,832.565"
         style="fill:#008460;fill-rule:nonzero;stroke:none;stroke-width:131.363" />
      <path
         id="path1946"
         d="m 48409.351,3187.2446 c -6.699,219.1 -13.661,475.678 -20.229,769.182 -6.7,293.78 -10.116,536.487 -10.116,728.145 0,307.626 2.631,650.916 7.754,1029.609 4.857,378.956 7.488,589.8595 7.488,632.4211 -30.345,3.6749 -131.101,12.3478 -302.266,25.4847 -171.429,13.267 -337.866,19.7045 -498.786,19.7045 -799.737,0 -1505.813,-77.5045 -2119.015,-233.2356 -613.202,-155.7297 -1144.565,-427.1927 -1594.746,-814.8577 -278.62,-237.845 -503.12,-533.149 -672.709,-885.675 -169.721,-352.276 -254.32,-754.575 -254.32,-1206.134 0,-555.075 161.84,-1051.797 485.912,-1489.63 324.073,-438.095 770.181,-791.13301 1338.326,-1059.75701 386.076,-182.936 825.09,-321.222 1317.438,-414.227 492.086,-93.005 1005.19,-139.573 1539.443,-139.573 83.809,0 161.839,0 233.957,0 72.381,0 137.012,0 194.155,0 l 60.558,665.156 c -13.531,0 -67.389,0 -161.314,0 -93.924,0 -169.589,0 -226.863,0 -513.892,0 -984.172,39.632 -1410.838,119.041 -426.404,79.27801 -799.475,194.99501 -1118.687,347.40301 -433.235,207.435 -773.202,489.655 -1020.033,846.279 -247.094,356.887 -370.443,736.486 -370.443,1138.917 0,509.281 128.735,930.956 386.338,1264.88 257.865,334.043 590.345,595.232 998.096,784.329 363.48,167.789 748.374,286.069 1154.286,354.575 405.648,68.505 824.301,102.883 1255.567,102.883 0,-48.748 -2.237,-286.332 -6.178,-712.749 -4.069,-425.905 -11.953,-1050.26 -24.039,-1872.171 h 831.264"
         style="fill:#008460;fill-rule:nonzero;stroke:none;stroke-width:131.363" />
      <path
         id="path1948"
         d="m 58335.66,5950.7396 -659.574,471.2641 c -73.957,-69.7537 -335.894,-333.2277 -785.682,-790.1871 -449.392,-456.946 -1142.725,-1170.208 -2079.474,-2139.009 l 5.123,-41.051 c 127.553,-30.266 297.405,-96.46 509.031,-198.318 211.494,-101.478 390.016,-211.547 534.516,-330.207 124.138,-103.147 232.38,-230.661 324.991,-382.542 92.48,-151.895 138.588,-355.482 138.588,-610.641 0,-233.721 -67.783,-435.008 -203.48,-603.573 -135.961,-168.815 -322.759,-292.48 -560.789,-371.37601 -194.812,-66.588 -398.95,-106.996 -613.465,-120.723 -214.515,-13.596 -412.348,-20.519 -593.235,-20.519 -120.854,0 -212.94,0 -276.519,0 -63.973,0 -110.608,0 -140.953,0 -6.827,579.07401 -10.902,1089.51101 -12.742,1531.58701 -1.576,441.8 -2.364,754.049 -2.364,936.985 0,417.432 1.842,984.447 5.645,1700.533 3.813,716.085 6.966,1165.5829 9.458,1348.5327 h -831.527 c 4.207,-182.9498 10.378,-537.2617 18.26,-1062.9757 8.276,-525.702 12.085,-1180.467 12.085,-1964.034 0,-152.263 0,-434.364 0,-845.767 0,-411.415 -9.983,-1161.235 -30.345,-2249.59001 33.63,0 201.773,-2.312 503.908,-7.448 302.267,-5.005 581.15,-7.698 836.651,-7.698 292.283,0 576.027,15.396 851.626,45.675 275.337,30.529 543.974,95.961 806.175,196.269 332.479,127.777 595.993,315.587 790.936,563.561 194.811,247.97301 292.282,539.29701 292.282,873.61601 0,432.315 -146.995,792.026 -440.854,1079.501 -293.99,287.488 -572.086,500.952 -834.286,640.787 v 22.963 c 465.419,485.294 975.895,985.852 1531.429,1501.82 555.666,515.705 853.597,793.301 894.582,832.565"
         style="fill:#008460;fill-rule:nonzero;stroke:none;stroke-width:131.363" />
      <path
         id="path1950"
         d="m 85648.379,209.12859 c -8.148,479.002 -15.107,1026.27301 -21.281,1642.41801 -6.177,615.895 -8.936,1059.757 -8.936,1330.824 0,866.168 4.857,1554.799 15.107,2065.367 9.984,510.831 15.107,783.0413 15.107,816.6571 l -675.205,297.3134 c -1015.83,-1244.5585 -1965.059,-2367.9475 -2847.949,-3370.1025 -882.89,-1002.023 -1393.104,-1580.979 -1530.641,-1736.447 l -10.246,4.361 c 0,817.288 6.571,1821.111 19.704,3011.469 13.399,1190.726 21.806,1877.5569 25.616,2060.5067 h -786.076 c 4.069,-76.1912 10.246,-347.6647 18.26,-814.3587 7.882,-466.956 11.953,-1116.336 11.953,-1949.15 0,-332.387 -1.97,-773.806 -5.911,-1324.401 -4.335,-550.594 -12.217,-1134.03 -24.302,-1750.18701 l 766.108,-329.564 c 60.296,70.437 575.764,663.869 1546.143,1781.09801 970.246,1117.36 1883.875,2155.179 2741.675,3113.721 l 10.247,-4.621 c 0,-469.517 -7.754,-1260.269 -22.857,-2372.099 -15.108,-1111.58 -22.595,-1935.80301 -22.595,-2472.80201 h 786.076"
         style="fill:#008460;fill-rule:nonzero;stroke:none;stroke-width:131.363" />
      <path
         id="path1952"
         d="m -2797.5682,3474.3376 c 0,580.099 1.668,1040.382 5.004,1381.111 3.206,340.466 6.798,626.023 10.134,856.171 197.938,5.123 437.702,8.975 719.421,11.284 281.84,2.562 585.354,3.853 910.818,3.853 499.78405,0 919.79005,-2.316 1260.38805,-7.439 340.335,-5.133 530.707,-7.694 571.114,-7.694 v 619.8756 c -30.266,0 -254.004,-2.3645 -671.0550002,-7.7537 -417.1689998,-4.8571 -933.2679998,-7.3596 -1548.7690498,-7.3596 -427.06,0 -818.192,2.4926 -1173.03,7.3596 -354.705,5.3892 -654.889,7.7537 -900.297,7.7537 7.954,-177.5636 14.882,-561.3796 21.039,-1152.0006 6.03,-590.621 9.109,-1200.736 9.109,-1831.265 0,-345.458 -2.053,-802.798 -6.03,-1371.994 -4.105,-569.068 -12.059,-1158.15201 -24.118,-1767.11101 238.994,0 537.767,2.561 896.317,7.697 358.555,5.124 728.275,7.436 1109.017,7.436 642.83805,0 1166.49005,-2.312 1570.72005,-7.436 403.836,-5.136 622.818,-7.697 656.552,-7.697 v 634.995 c -33.734,0 -244.9,-2.43 -633.472,-7.685 -388.571,-4.886 -872.066,-7.448 -1450.75905,-7.448 -252.204,0 -499.534,0 -741.872,0 -242.324,0 -433.851,0 -575.093,0 0,348.67701 -2.566,696.19701 -7.569,1043.07401 -5.26,346.628 -7.569,674.273 -7.569,982.529 v 619.744"
         style="fill:#008460;fill-rule:nonzero;stroke:none;stroke-width:131.363" />
      <path
         id="path1954"
         d="m -2464.9252,2854.5946 c 140.978,0 186.653,0 379.336,0 192.421,0 363.941,0 514.286,0 551.107,0 1043.33705,-2.431 1477.19005,-7.567 433.602,-4.874 664.643,-7.567 692.742,-7.567 v 650.011 c -25.025,0 -283.507,-2.296 -774.962,-7.566 -491.587,-5.005 -940.96605,-7.567 -1348.02105,-7.567 -150.476,0 -329.55,0 -537.891,0 -208.197,0 -261.702,0 -402.68,0 v -619.744"
         style="fill:#008460;fill-rule:nonzero;stroke:none;stroke-width:131.363" />
      <path
         id="path1956"
         d="m 15423.068,3474.3376 c 0,580.099 1.704,1040.382 4.995,1381.111 3.281,340.466 6.827,626.023 10.115,856.171 197.964,5.123 437.702,8.975 719.475,11.284 281.774,2.562 585.222,3.853 910.74,3.853 499.835,0 919.803,-2.316 1260.427,-7.439 340.361,-5.133 530.706,-7.694 571.034,-7.694 v 619.8756 c -30.214,0 -253.924,-2.3645 -671.002,-7.7537 -417.077,-4.8571 -933.202,-7.3596 -1548.769,-7.3596 -427.06,0 -818.128,2.4926 -1172.939,7.3596 -354.68,5.3892 -654.976,7.7537 -900.362,7.7537 8.01,-177.5636 14.844,-561.3796 21.019,-1152.0006 6.177,-590.621 9.192,-1200.736 9.192,-1831.265 0,-345.458 -2.099,-802.798 -6.178,-1371.994 -3.941,-569.064 -12.084,-1158.14801 -24.039,-1767.10701 239.081,0 537.8,2.561 896.29,7.697 358.621,5.124 728.276,7.436 1108.966,7.436 643.021,0 1166.634,-2.312 1570.706,-7.436 403.941,-5.136 622.923,-7.697 656.684,-7.697 v 634.995 c -33.761,0 -244.861,-2.43 -633.433,-7.685 -388.572,-4.886 -872.119,-7.448 -1450.772,-7.448 -252.217,0 -499.574,0 -741.938,0 -242.233,0 -433.76,0 -575.107,0 0,348.67701 -2.63,696.19701 -7.487,1043.07401 -5.252,346.628 -7.616,674.273 -7.616,982.529 v 619.744"
         style="fill:#008460;fill-rule:nonzero;stroke:none;stroke-width:131.363" />
      <path
         id="path1958"
         d="m 15755.81,2854.5946 c 140.953,0 186.667,0 379.245,0 192.447,0 363.875,0 514.286,0 551.067,0 1043.284,-2.431 1477.176,-7.567 433.629,-4.874 664.565,-7.567 692.808,-7.567 v 650.011 c -25.091,0 -283.613,-2.296 -775.041,-7.566 -491.691,-5.005 -940.953,-7.567 -1348.046,-7.567 -150.411,0 -329.591,0 -537.931,0 -208.211,0 -261.544,0 -402.497,0 v -619.744"
         style="fill:#008460;fill-rule:nonzero;stroke:none;stroke-width:131.363" />
      <path
         id="path1960"
         d="m 63040.423,3474.3376 c 0,580.099 1.843,1040.382 5.123,1381.111 3.025,340.466 6.7,626.023 9.985,856.171 198.094,5.123 437.7,8.975 719.474,11.284 281.905,2.562 585.485,3.853 910.739,3.853 499.837,0 919.803,-2.316 1260.296,-7.439 340.493,-5.133 530.838,-7.694 571.167,-7.694 v 619.8756 c -30.083,0 -253.794,-2.3645 -671.003,-7.7537 -417.077,-4.8571 -933.071,-7.3596 -1548.638,-7.3596 -427.192,0 -818.128,2.4926 -1173.07,7.3596 -354.812,5.3892 -654.976,7.7537 -900.231,7.7537 8.148,-177.5636 14.845,-561.3796 21.019,-1152.0006 5.911,-590.621 9.064,-1200.736 9.064,-1831.265 0,-345.458 -2.099,-802.798 -6.177,-1371.994 -3.941,-569.064 -11.823,-1158.14801 -23.909,-1767.10701 238.818,0 537.8,2.561 896.158,7.697 358.753,5.124 728.145,7.436 1109.229,7.436 642.628,0 1166.372,-2.312 1570.707,-7.436 403.809,-5.136 622.66,-7.697 656.552,-7.697 v 634.995 c -33.892,0 -245.123,-2.43 -633.564,-7.685 -388.702,-4.886 -871.987,-7.448 -1450.904,-7.448 -252.084,0 -499.441,0 -741.675,0 -242.495,0 -433.892,0 -575.237,0 0,348.67701 -2.493,696.19701 -7.488,1043.07401 -5.389,346.628 -7.616,674.273 -7.616,982.529 v 619.744"
         style="fill:#008460;fill-rule:nonzero;stroke:none;stroke-width:131.363" />
      <path
         id="path1962"
         d="m 63373.165,2854.5946 c 140.822,0 186.798,0 379.246,0 192.446,0 364.006,0 514.417,0 551.067,0 1043.153,-2.431 1477.044,-7.567 433.892,-4.874 664.697,-7.567 692.94,-7.567 v 650.011 c -25.09,0 -283.744,-2.296 -775.041,-7.566 -491.561,-5.005 -941.084,-7.567 -1348.047,-7.567 -150.279,0 -329.721,0 -537.8,0 -208.079,0 -261.937,0 -402.759,0 v -619.744"
         style="fill:#008460;fill-rule:nonzero;stroke:none;stroke-width:131.363" />
      <path
         id="path1964"
         d="m 71858.686,3474.3376 c 0,580.099 1.449,1040.382 4.857,1380.848 3.281,340.729 6.966,626.286 10.247,856.434 197.832,5.123 437.701,8.975 719.475,11.284 281.642,2.562 585.222,3.853 910.739,3.853 499.836,0 919.803,-2.562 1260.296,-7.695 340.493,-4.877 530.838,-7.438 571.166,-7.438 v 619.6126 c -30.082,0 -253.793,-2.3646 -671.001,-7.4877 -417.209,-4.8572 -933.072,-7.6158 -1548.638,-7.6158 -427.193,0 -818.129,2.7586 -1173.072,7.6158 -354.811,5.1231 -654.975,7.4877 -900.493,7.4877 8.148,-177.3006 14.845,-561.3796 21.019,-1151.7376 6.177,-590.621 9.192,-1200.999 9.192,-1831.383 0,-345.603 -1.97,-802.812 -5.911,-1372.125 -4.069,-568.946 -12.217,-1158.03001 -24.303,-1766.85801 239.081,0 538.064,2.561 896.421,7.435 358.752,5.254 728.145,7.698 1108.966,7.698 642.89,0 1166.503,-2.444 1570.707,-7.698 404.072,-4.874 622.923,-7.435 656.814,-7.435 v 634.746 c -33.891,0 -245.123,-2.313 -633.563,-7.436 -388.703,-5.005 -871.987,-7.579 -1450.903,-7.579 -252.086,0 -499.442,0 -741.676,0 -242.495,0 -434.154,0 -575.238,0 0,348.55801 -2.631,696.32801 -7.488,1042.95601 -5.389,346.877 -7.616,674.522 -7.616,982.66 v 619.862"
         style="fill:#008460;fill-rule:nonzero;stroke:none;stroke-width:131.363" />
      <path
         id="path1966"
         d="m 72191.428,2854.4756 c 140.822,0 186.536,0 379.246,0 192.577,0 363.744,0 514.417,0 551.067,0 1043.153,-2.312 1477.044,-7.579 433.892,-4.992 664.697,-7.567 692.678,-7.567 v 650.023 c -24.828,0 -283.482,-2.315 -774.779,-7.577 -491.561,-4.876 -941.084,-7.438 -1348.047,-7.438 -150.279,0 -329.721,0 -538.062,0 -208.079,0 -261.675,0 -402.497,0 v -619.861"
         style="fill:#008460;fill-rule:nonzero;stroke:none;stroke-width:131.363" />
      <path
         id="path1968"
         d="m 89000.104,1085.9496 -168.276,28.729 -146.601,-745.07701 h -11.429 c -30.739,60.164 -70.016,140.86 -117.964,241.944 -47.816,101.097 -110.082,236.177 -186.798,405.12301 h -116.651 c -72.906,-160.22301 -133.596,-291.96701 -182.069,-395.11301 -48.604,-103.264 -88.801,-187.547 -120.722,-252.979 h -11.559 c -16.684,64.276 -37.702,154.969 -63.187,271.843 -25.615,116.991 -56.879,275.034 -93.924,474.25901 l -160.131,-28.729 c 54.778,-228.47901 105.616,-442.83701 151.986,-643.08701 46.766,-200.263 71.199,-307.508 73.827,-321.616 l 147.783,-20.519 c 6.434,14.24 36.256,78.253 89.458,192.04 53.333,113.786 131.232,279.395 233.957,496.709 h 9.724 c 78.293,-172.282 149.097,-326.345 212.677,-462.069 63.449,-135.606 99.179,-211.166 107.06,-226.68 l 143.449,12.309 c 2.63,11.547 16.42,78.253 41.773,200 25.091,121.734 81.051,379.455 167.62,772.91301 z M 87665.981,256.72159 c -9.064,0 -44.794,0 -107.454,0 -62.529,0 -151.199,0 -266.142,0 -1.448,90.942 -2.364,167.54 -3.025,229.622 -0.689,62.095 -1.054,118.148 -1.054,168.184 0,124.177 0.69,226.286 1.971,306.338 1.448,80.05301 2.098,125.84601 2.098,137.39301 h -168.276 c 0,-11.547 0.69,-56.696 1.971,-135.46201 1.448,-78.765 2.098,-183.448 2.098,-314.049 0,-46.174 0,-102.883 0,-170.102 0,-67.218 -1.448,-141.241 -4.069,-221.924 -113.365,0 -205.451,0 -275.468,0 -70.279,0 -109.818,0 -118.62,0 v -143.685 h 935.96 z"
         style="fill:#008460;fill-rule:nonzero;stroke:none;stroke-width:131.363" />
      <path
         id="path1970"
         d="m 32895.125,-6476.9164 c 213.859,-2.95 282.431,85.693 351.659,223.728 15.632,31.557 64.762,101.6 49.656,152.657 -23.778,39.128 -47.423,78.125 -71.068,117.252 -51.757,99.036 -93.399,207.949 -135.041,315.965 -143.711,373.558 -204.007,996.906 -109.951,1477.195 116.913,597.163 287.159,1155.718 550.41,1608.421 84.335,145.353 171.692,293.005 252.086,436.808 116.125,207.83 200.986,424.631 319.606,628.467 125.32,228.479 250.772,456.946 376.355,685.29399 26.667,46.187 117.175,200.893 88.67,277.097 -5.911,7.054 -11.823,14.108 -17.734,21.294 -124.138,0.896 -200.591,-93.268 -273.367,-149.189 -203.086,-156.256 -373.99,-335.59299 -532.676,-536.23699 -163.415,-206.66 -363.482,-398.581 -504.171,-624.867 -335.632,-539.954 -607.816,-1150.319 -784.762,-1842.93 -46.766,-183.185 -68.308,-374.844 -102.857,-571.639 -22.463,-126.607 -23.383,-252.072 -21.412,-390.621 1.31,-94.423 -7.616,-226.036 7.094,-315.967 20.754,-127.514 11.822,-243.867 35.468,-362.278 53.069,-264.525 115.599,-505.695 209.523,-724.29 35.074,-81.332 146.601,-356.502 202.43,-394.089 36.651,-10.776 73.432,-21.424 110.082,-32.071"
         style="fill:#008460;fill-rule:evenodd;stroke:none;stroke-width:131.363" />
      <path
         id="path1972"
         d="m 35455.258,-5972.6314 c 201.511,-4.49 273.892,120.844 316.059,276.966 7.882,29.761 28.375,88.13 14.056,124.312 -34.154,57.984 -68.571,115.968 -102.857,173.951 -60.426,127.764 -120.722,255.672 -181.15,383.435 -163.283,383.448 -261.806,798.83 -354.942,1260.518 -30.87,152.539 -23.383,305.708 -49.787,468.756 -19.966,123.153 -14.187,264 -14.187,401.274 1.182,72.092 2.365,144.316 3.547,216.539 4.729,92.361 9.458,184.604 14.187,276.966 61.216,362.404 89.064,702.607 184.566,1022.555 204.926,685.93799 454.121,1298.49599 724.466,1917.58299 123.613,283.127 267.717,550.72601 404.729,820.25701 41.379,81.195 146.338,251.691 124.269,369.195 -5.911,5.912 -11.823,11.81 -17.734,17.84 -115.862,-5.781 -244.991,-163.311 -312.512,-230.792 -254.319,-254.634 -474.22,-539.69201 -671.134,-852.30901 -163.152,-259.14 -348.242,-526.095 -475.665,-816.657 -195.074,-444.637 -329.72,-923.90199 -458.062,-1441.66899 -40.197,-162.141 -50.049,-324.427 -81.707,-497.09 -15.37,-145.603 -30.739,-291.206 -46.109,-436.69 -1.31,-52.072 -2.364,-104.158 -3.675,-156.243 0,-118.411 0,-236.69 0,-355.087 3.675,-88.775 7.222,-177.551 10.773,-266.326 11.822,-133.793 23.645,-267.468 35.468,-401.274 67.914,-364.322 126.633,-707.481 227.257,-1026.14 99.968,-316.598 215.304,-606.779 355.074,-880.67 35.468,-69.401 117.438,-262.211 166.963,-305.314 49.261,-42.848 120.197,-37.075 188.111,-63.886"
         style="fill:#008460;fill-rule:evenodd;stroke:none;stroke-width:131.363" />
      <path
         id="path1974"
         d="m 38430.892,-5475.5364 c 225.68,-4.48 323.152,90.312 323.152,308.913 0,59.402 0,129.694 -24.827,166.896 -33.236,34.26 -66.339,68.637 -99.443,103.015 -62.791,74.535 -125.451,149.071 -188.242,223.724 -173.925,223.094 -341.413,455.541 -493.662,699.534 -381.215,610.641 -653.399,1293.492 -852.151,2091.285 -53.728,216.039 -66.733,446.043 -106.536,678.24 -7.094,88.775 -14.055,177.55 -21.281,266.32499 -2.365,91.205 -4.729,182.292 -7.094,273.498 0,72.092 0,144.315 0,216.538 1.183,66.194 2.365,132.519 3.547,198.844 14.187,146.759 28.507,293.518 42.562,440.276 16.683,120.71 33.235,241.432 49.787,362.142 124.926,571.88801 222.003,1140.57201 386.995,1665.51101 84.597,269.018 185.616,513.143 277.045,774.069 34.679,99.166 106.272,241.563 74.482,372.795 -3.546,1.025 -7.093,2.312 -10.64,3.468 -56.881,20.138 -111.265,-64.276 -138.457,-92.243 -120.591,-124.177 -218.193,-276.322 -312.381,-426.155 -390.805,-620.519 -688.999,-1318.502 -870.017,-2151.84301 -50.968,-234.377 -58.062,-491.074 -99.441,-745.589 -24.96,-153.419 7.094,-317.886 -17.734,-479.396 2.364,-114.811 4.729,-229.623 7.094,-344.447 2.364,-60.282 4.729,-120.841 7.093,-181.13599 25.353,-157.268 24.828,-323.652 53.202,-472.211 52.939,-275.678 78.292,-535.067 152.775,-784.709 64.893,-218.089 118.883,-441.038 198.752,-646.293 198.095,-508.65 432.447,-967.527 703.055,-1399.067 170.246,-271.331 356.387,-519.042 546.863,-766.884 73.038,-95.068 174.975,-243.875 269.951,-312.499 38.621,-27.968 97.866,-22.45 145.551,-42.601"
         style="fill:#008460;fill-rule:evenodd;stroke:none;stroke-width:131.363" />
      <path
         id="path1976"
         d="m 27789.048,-4719.2934 c 1414.385,-17.957 2419.049,496.972 3280.921,1040.513 391.856,246.949 804.992,521.734 1090.182,877.07 85.123,96.986 170.377,194.102 255.631,291.087 136.618,175.488 260.756,355.337 383.449,546.864 34.023,52.992 180.361,260.546 145.55,347.915 -5.911,5.899 -11.822,11.797 -17.734,17.695 -97.734,27.586 -284.926,-133.925 -344.433,-177.406 -293.465,-230.791 -587.062,-461.701 -880.527,-692.48 -764.926,-563.941 -1479.146,-1110.305 -2496.289,-1431.015 -289.13,-91.205 -588.375,-134.949 -923.219,-191.658 -118.358,-20.138 -245.386,-14.24 -376.355,-14.24 -43.875,0 -87.619,0 -131.363,0 -31.658,-14.87 -53.859,-51.56 -74.614,-78.122 -104.171,-134.055 -139.639,-281.326 -31.921,-443.862 18.653,-28.217 35.074,-64.144 63.974,-81.589 18.916,-3.587 37.832,-7.186 56.748,-10.772"
         style="fill:#008460;fill-rule:evenodd;stroke:none;stroke-width:131.363" />
      <path
         id="path1978"
         d="m 39897.296,-2833.7754 c 253.53,-4.362 324.598,91.98 358.621,308.913 6.965,44.387 5.517,128.919 -14.187,163.297 -86.306,86.463 -172.742,172.926 -259.18,259.271 -152.512,188.953 -312.774,370.483 -454.515,571.626 -390.279,554.19399 -678.884,1204.58499 -869.885,1956.59799 -57.8,227.179 -71.987,469.255 -113.761,717.22901 -7.093,131.363 -14.187,262.726 -21.15,394.089 -1.31,91.205 -2.492,182.423 -3.674,273.497 8.403,265.55 10.771,514.431 49.786,745.59 7.093,104.171 14.187,208.341 21.281,312.499 51.231,306.864 55.96,617.944 117.176,912.617 46.239,223.725 92.348,447.449 138.456,671.055 17.471,83.389 37.045,236.164 -3.547,305.445 -2.364,1.291 -4.729,2.316 -7.093,3.587 -78.293,-5.902 -113.498,-87.737 -149.097,-138.549 -95.107,-135.461 -163.153,-288.381 -244.992,-440.263 -234.089,-434.378 -372.151,-1038.332 -486.569,-1587.127 -8.147,-84.164 -16.419,-168.184 -24.695,-252.217 -20.493,-127.001 0.1,-266.574 -21.413,-404.86 -1.182,-115.967 -2.365,-231.935 -3.547,-347.902 5.911,-121.997 11.823,-243.875 17.734,-365.74 47.554,-292.74301 50.97,-578.43101 117.177,-845.13701 100.886,-406.016 207.815,-784.841 358.62,-1139.81 194.023,-456.81399 446.503,-860.13799 717.373,-1239.22499 112.052,-157.018 232.512,-301.846 351.396,-450.917 52.151,-55.671 104.302,-111.343 156.321,-166.896 66.207,-66.325 132.546,-132.65 198.884,-198.844 24.828,-6.03 49.655,-11.928 74.483,-17.826"
         style="fill:#008460;fill-rule:evenodd;stroke:none;stroke-width:131.363" />
      <path
         id="path1980"
         d="m 43224.325,-2027.7724 c 152.512,1.931 288.867,67.744 333.793,177.551 51.495,125.083 -40.197,350.725 -109.951,397.674 -120.854,54.529 -241.445,109.045 -362.167,163.442 -246.043,125.715 -489.459,264.013 -710.148,418.96899 -932.546,654.897 -1635.732,1474.759 -2080.789,2620.59901 -290.838,748.663 -383.449,1735.16 -383.58,2758.87 0,346.877 5.646,662.976 53.333,972.914 18.522,120.71 17.603,336.867 -42.561,397.675 -68.572,-8.463 -96.815,-98.01 -120.723,-152.657 -61.215,-138.798 -110.871,-285.439 -163.415,-440.276 -120.592,-355.336 -161.84,-761.484 -234.352,-1182.385 -9.458,-151.513 -18.916,-303.146 -28.375,-454.515 -2.364,-86.463 -4.729,-172.795 -7.093,-259.14 0,-241.813 11.56,-458.22 53.334,-667.586 67.914,-342.004 127.027,-667.206 223.579,-972.9 422.463,-1337.23601 1266.996,-2341.57101 2300.954,-3071.515 242.626,-171.389 504.564,-315.705 766.897,-468.743 122.035,-59.139 243.941,-118.41 365.714,-177.55 48.604,-20.138 97.077,-40.276 145.55,-60.427"
         style="fill:#008460;fill-rule:evenodd;stroke:none;stroke-width:131.363" />
      <path
         id="path1982"
         d="m 30256.832,-1821.7424 c 1170.05,-12.44 1953.105,257.209 2744.829,607.173 543.975,240.52499 1007.029,556.11099 1399.015,948.01999 225.682,225.642 436.389,457.195 617.801,728.013 31.921,47.461 172.742,223.461 142.135,301.714 -6.04,6.03 -11.955,11.941 -17.866,17.839 -76.059,21.294 -168.801,-52.729 -216.486,-81.72 -176.552,-107.377 -336.552,-226.93 -500.756,-344.447 -289.129,-206.792 -590.87,-384.723 -901.806,-575.094 -337.34,-206.66 -683.481,-407.948 -1068.9,-571.757 -859.114,-365.22899 -2048.606,-551.75099 -3156.652,-284.01999 -42.561,10.259 -87.093,-40.67 -110.082,-56.841 -81.708,-58.102 -189.557,-152.144 -159.737,-316.085 13.399,-74.273 46.239,-183.829 99.441,-220.138 42.037,-28.611 111.265,-29.636 166.832,-42.588 213.99,-50.036 451.887,-57.09 688.867,-95.829 91.165,-4.742 182.331,-9.498 273.365,-14.24"
         style="fill:#008460;fill-rule:evenodd;stroke:none;stroke-width:131.363" />
      <path
         id="path1984"
         d="m 31741.102,390.38359 c 1017.143,-8.461 1904.631,112.643 2638.294,397.688 248.933,96.722 507.586,165.872 727.882,294.79101 327.093,191.278 623.316,411.928 912.577,639.12 244.861,192.289 470.805,423.974 660.362,671.055 49.786,65.037 187.192,202.561 166.963,312.617 -3.547,1.038 -7.094,2.312 -10.641,3.468 -67.127,28.611 -234.615,-94.029 -277.044,-120.709 -257.866,-163.311 -515.994,-326.621 -774.123,-490.05 -664.826,-414.87 -1475.861,-720.959 -2336.289,-937.497 -293.596,-73.761 -602.824,-88.395 -926.765,-142.017 -164.204,-27.06101 -346.404,-14.24 -525.583,-14.24 -152.25,0 -315.666,-11.79601 -454.516,10.785 -206.24,33.471 -402.759,17.051 -596.519,53.228 -499.574,93.399 -969.328,174.083 -1409.525,312.5 -108.899,34.259 -217.931,68.637 -326.831,102.883 -42.561,17.839 -85.254,35.534 -127.815,53.242 -27.192,-6.924 -54.385,-14.109 -81.577,-21.163 -119.541,-41.314 -223.054,-93.268 -248.67,-227.324 -21.807,-114.679 64.499,-298.64001 120.722,-333.79301 40.329,-14.239 80.526,-28.348 120.723,-42.588 124.926,-48.499 256.026,-85.819 390.674,-127.908 482.626,-150.857 976.42,-229.885 1523.284,-330.194 188.243,-17.707 376.355,-35.533 564.598,-53.241 89.983,-3.586 179.836,-7.054 269.819,-10.653"
         style="fill:#008460;fill-rule:evenodd;stroke:none;stroke-width:131.363" />
      <path
         id="path1986"
         d="m 33527.114,2009.5886 c 830.082,-9.234 1498.587,120.079 2105.747,333.794 255.37,90.062 477.767,174.988 745.616,294.804 304.368,136.237 561.577,350.463 823.777,543.146 235.534,172.927 445.189,368.184 646.305,575.226 40.066,41.313 184.565,178.837 138.457,248.617 -156.322,18.088 -309.622,-86.2 -419.048,-142.003 -279.277,-140.86 -558.686,-281.722 -837.964,-422.569 -619.376,-320.197 -1158.49,-501.845 -1821.478,-671.185 -250.378,-63.764 -512.447,-85.058 -788.309,-131.232 -152.644,-25.655 -455.961,-36.44 -614.384,-10.785 -63.843,2.313 -127.817,4.756 -191.659,7.185 -171.166,27.968 -340.099,31.817 -500.755,67.482 -427.981,94.541 -790.148,223.987 -1143.384,379.98 -124.269,69.78 -248.538,139.573 -372.808,209.353 -44.926,31.948 -89.983,64.013 -134.909,95.961 -27.324,-2.316 -54.516,-4.877 -81.708,-7.183 -139.639,-27.704 -243.153,-60.939 -291.1,-177.55 -142.924,-346.877 261.938,-476.191 443.875,-582.279 417.734,-243.613 905.748,-398.319 1448.67,-518.398 183.515,-40.538 376.093,-45.924 571.692,-78.121 91.034,-4.742 182.2,-9.367 273.367,-14.24"
         style="fill:#008460;fill-rule:evenodd;stroke:none;stroke-width:131.363" />
      <path
         id="path1988"
         d="m 35451.711,3834.8116 c 1314.549,-16.67 2286.898,363.047 3089.261,866.181 189.426,119.041 362.694,250.404 536.093,383.566 77.242,59.271 175.895,122.128 209.523,223.725 -7.093,7.182 -14.187,14.239 -21.28,21.306 -92.611,27.573 -258.129,-43.113 -326.7,-67.481 -254.449,-94.673 -509.031,-189.347 -763.481,-284.02 -476.584,-186.272 -1017.143,-299.165 -1558.752,-418.981 -137.274,-20.138 -274.68,-40.276 -411.823,-60.296 -141.347,-25.393 -301.347,-18.207 -450.969,-42.588 -72.25,-1.271 -144.368,-2.561 -216.749,-3.714 -100.492,0 -200.985,0 -301.741,0 -105.352,7.182 -210.706,14.239 -315.928,21.424 -237.372,40.027 -468.702,54.385 -681.904,117.124 -200.198,58.877 -405.255,107.888 -592.71,181.005 -408.276,159.462 -778.982,346.246 -1125.912,564.702 -209.392,131.876 -395.402,293.518 -585.747,443.744 -81.708,72.224 -163.416,144.579 -244.992,216.67 -29.688,30.7924 -59.244,61.5708 -88.801,92.3619 -36.782,4.6207 -73.301,9.3695 -110.083,14.1084 -155.927,25.4059 -273.892,-43.8749 -315.927,-145.4713 -29.032,-70.043 -45.058,-220.138 -10.772,-298.391 24.171,-55.028 146.206,-152.145 195.337,-191.658 171.822,-138.418 329.721,-289.918 511.264,-422.569 662.595,-484.4 1397.702,-839.737 2322.234,-1072.446 261.938,-65.813 541.347,-73.13 830.87,-120.592 143.318,-5.901 286.503,-11.928 429.689,-17.707"
         style="fill:#008460;fill-rule:evenodd;stroke:none;stroke-width:131.363" />
      <path
         id="path1990"
         d="m 37113.584,5315.4696 c 964.466,-15.133 1712.053,228.611 2386.075,518.397 171.429,73.761 335.764,148.296 482.891,244.8995 39.015,25.6552 143.054,75.941 113.629,142.1223 -145.419,38.4886 -331.035,-14.4769 -458.062,-42.5754 -307.653,-55.671 -615.567,-111.3557 -923.219,-167.0277 -194.023,-22.3187 -388.178,-44.8997 -582.332,-67.4807 -89.984,-3.458 -179.836,-6.926 -269.819,-10.509 -99.574,-15.909 -237.767,-7.961 -339.968,-15.909 -156.059,-12.453 -373.858,-11.034 -540.69,15.909 -102.988,8.206 -205.976,16.42 -308.965,24.879 -276.651,47.725 -544.762,68.2437 -791.725,142.0172 -330.246,98.5222 -636.584,204.2434 -930.312,333.6355 -913.891,402.8898 -1693.399,1104.3679 -2261.938,1857.0775 -118.621,157.2415 -244.86,313.8258 -351.527,483.0219 -31.265,49.5231 -95.895,196.3872 -138.457,223.7104 -117.701,75.271 -344.959,115.6 -436.782,-10.6404 -35.73,-49.2611 -111.133,-239.606 -70.936,-333.7932 37.701,-60.2956 75.665,-120.8533 113.629,-181.1489 212.282,-336.6838 461.084,-624.4997 703.055,-926.7658 160.394,-200.3281 350.476,-403.5469 550.41,-564.4662 62.66,-58.1941 125.452,-115.9941 188.243,-174.1872 154.352,-122.8247 306.076,-250.9036 468.572,-365.5834 550.542,-388.7154 1171.232,-680.9464 1892.545,-901.9764 315.535,-96.605 651.692,-129.446 1012.021,-191.659 164.467,-10.654 329.064,-21.425 493.662,-31.947"
         style="fill:#008460;fill-rule:evenodd;stroke:none;stroke-width:131.363" />
    </g>
  </g>
</svg>
